<svg width="45" height="45" viewBox="0 0 45 45" fill="none" xmlns="http://www.w3.org/2000/svg">
<path d="M2.5 12.5C2.5 9.84784 3.55357 7.3043 5.42893 5.42893C7.3043 3.55357 9.84784 2.5 12.5 2.5H32.5C35.1522 2.5 37.6957 3.55357 39.5711 5.42893C41.4464 7.3043 42.5 9.84784 42.5 12.5V32.5C42.5 35.1522 41.4464 37.6957 39.5711 39.5711C37.6957 41.4464 35.1522 42.5 32.5 42.5H12.5C9.84784 42.5 7.3043 41.4464 5.42893 39.5711C3.55357 37.6957 2.5 35.1522 2.5 32.5V12.5Z" stroke="#FFFBF6" stroke-width="5" stroke-linecap="round" stroke-linejoin="round"/>
<path d="M33.75 11.25V11.275M15 22.5C15 24.4891 15.7902 26.3968 17.1967 27.8033C18.6032 29.2098 20.5109 30 22.5 30C24.4891 30 26.3968 29.2098 27.8033 27.8033C29.2098 26.3968 30 24.4891 30 22.5C30 20.5109 29.2098 18.6032 27.8033 17.1967C26.3968 15.7902 24.4891 15 22.5 15C20.5109 15 18.6032 15.7902 17.1967 17.1967C15.7902 18.6032 15 20.5109 15 22.5Z" stroke="#FFFBF6" stroke-width="5" stroke-linecap="round" stroke-linejoin="round"/>
</svg>
